<svg width="39" height="39" viewBox="0 0 39 39" fill="none" xmlns="http://www.w3.org/2000/svg">
<path d="M6.09387 25.445L9.3479 23.3941C9.97577 24.5532 10.5468 25.5341 11.9167 25.5341C13.2298 25.5341 14.0578 24.9992 14.0578 22.9186V8.76927H18.0538V22.9774C18.0538 27.2875 15.6277 29.2495 12.088 29.2495C8.89126 29.2495 7.03586 27.5257 6.09387 25.445ZM20.2244 24.999L23.4781 23.0373C24.3347 24.494 25.4479 25.564 27.4172 25.564C29.0732 25.564 30.1289 24.7018 30.1289 23.5128C30.1289 22.0861 29.0442 21.5807 27.2175 20.7486L26.2187 20.3023C23.3355 19.0245 21.4231 17.4193 21.4231 14.0306C21.4231 10.9094 23.7066 8.53125 27.2747 8.53125C29.8152 8.53125 31.642 9.45288 32.9549 11.8606L29.8434 13.9415C29.1582 12.6634 28.4164 12.1581 27.2746 12.1581C26.1042 12.1581 25.362 12.9309 25.362 13.9415C25.362 15.1899 26.1042 15.6955 27.8167 16.4684L28.8157 16.9142C32.2126 18.4303 34.125 19.9759 34.125 23.4534C34.125 27.1992 31.2991 29.25 27.5028 29.25C23.7922 29.25 21.3946 27.4069 20.2244 24.999Z" fill="#ffffff"/>
</svg>
