<svg width="24" height="18" viewBox="0 0 24 18" fill="none" xmlns="http://www.w3.org/2000/svg">
<path d="M10.9091 0H1.09091C0.488417 0 0 0.488417 0 1.09091C0 1.6934 0.488417 2.18182 1.09091 2.18182H10.9091C11.5116 2.18182 12 1.6934 12 1.09091C12 0.488417 11.5116 0 10.9091 0Z" fill="#EC4392"/>
<path d="M22.9091 7.63635H1.09091C0.488417 7.63635 0 8.12477 0 8.72726C0 9.32975 0.488417 9.81817 1.09091 9.81817H22.9091C23.5116 9.81817 24 9.32975 24 8.72726C24 8.12477 23.5116 7.63635 22.9091 7.63635Z" fill="#EC4392"/>
<path d="M10.9091 15.2727H1.09091C0.488417 15.2727 0 15.7612 0 16.3636C0 16.9661 0.488417 17.4546 1.09091 17.4546H10.9091C11.5116 17.4546 12 16.9661 12 16.3636C12 15.7612 11.5116 15.2727 10.9091 15.2727Z" fill="#EC4392"/>
</svg>
