<svg width="39" height="12" viewBox="0 0 39 12" fill="none" xmlns="http://www.w3.org/2000/svg">
<mask id="mask0_99_199" style="mask-type:luminance" maskUnits="userSpaceOnUse" x="0" y="1" width="39" height="10">
<path d="M39 1.19995H0V10.8H39V1.19995Z" fill="white"/>
</mask>
<g mask="url(#mask0_99_199)">
<path d="M39.0493 1.20392V2.72331H35.8333V10.7169H34.2252V2.7234H30.9421V1.20392H39.0493ZM7.53781 10.7169L1.60818 3.23332V10.713H0V1.19995H2.01009L9.50155 10.6457L9.50164 2.7234L9.50099 1.20392H17.6083V2.72331H11.1097V5.1676H16.3359V6.6871H11.1097V9.1975H17.6084V10.7169H7.53781ZM22.7623 6.67261L23.8162 8.00302L21.6566 10.7281H19.5462L22.7623 6.67261ZM21.6566 1.20789L24.3775 4.63897L27.0899 1.21841L29.1945 1.21518L25.4312 5.96764L29.2005 10.7208H27.0899L19.5522 1.20789H21.6566Z" fill="#ffffff"/>
</g>
</svg>
