<svg width="39" height="39" viewBox="0 0 39 39" fill="none" xmlns="http://www.w3.org/2000/svg">
<path d="M19.5057 36.903C19.0393 36.903 18.577 36.7811 18.1683 36.5455L13.9108 34.0243C13.2746 33.6684 13.585 33.5425 13.7946 33.4701C14.6429 33.1736 14.8143 33.1061 15.7194 32.5918C15.8145 32.5374 15.9388 32.5569 16.0363 32.6146L19.3074 34.5556C19.4253 34.6198 19.5934 34.6198 19.7023 34.5556L32.4561 27.1936C32.5739 27.1262 32.6511 26.9896 32.6511 26.8491V12.1323C32.6511 11.9852 32.5748 11.8544 32.4537 11.7813L19.7056 4.4249C19.5878 4.35502 19.4309 4.35502 19.3131 4.4249L6.56662 11.7805C6.44312 11.8503 6.36431 11.9876 6.36431 12.1282V26.8458C6.36431 26.9864 6.44069 27.1205 6.56256 27.1871L10.0555 29.2045C11.9519 30.1527 13.1105 29.0355 13.1105 27.9118V13.3868C13.1105 13.1796 13.273 13.0195 13.481 13.0195H15.0962C15.2977 13.0195 15.4635 13.1788 15.4635 13.3868V27.9191C15.4635 30.4477 14.0847 31.9004 11.687 31.9004C10.9492 31.9004 10.3683 31.9004 8.74656 31.1025L5.40069 29.1745C4.57356 28.6951 4.0625 27.8005 4.0625 26.8467V12.129C4.0625 11.1711 4.57356 10.2773 5.39987 9.80446L18.1675 2.43915C18.9751 1.98252 20.0476 1.98252 20.8496 2.43915L33.6009 9.80771C34.4232 10.283 34.9375 11.1743 34.9375 12.1323V26.8499C34.9375 27.8046 34.4232 28.6951 33.6001 29.1745L20.8487 36.539C20.4401 36.7754 19.9769 36.8965 19.5049 36.8965" fill="#ffffff"/>
<path d="M23.4456 26.7613C17.8653 26.7613 16.6953 24.1995 16.6953 22.0513C16.6953 21.8473 16.8602 21.684 17.065 21.684H18.7127C18.8947 21.684 19.0483 21.8165 19.0767 21.996C19.3254 23.6747 20.0664 24.5213 23.4407 24.5213C26.1284 24.5213 27.2716 23.9143 27.2716 22.4884C27.2716 21.6678 26.9458 21.0584 22.7704 20.6497C19.2774 20.3052 17.1194 19.5358 17.1194 16.7424C17.1194 14.1692 19.2904 12.6368 22.9264 12.6368C27.01 12.6368 29.0339 14.0547 29.2891 17.0999C29.2988 17.2055 29.2606 17.3071 29.1899 17.3843C29.1201 17.4574 29.0209 17.5021 28.9186 17.5021H27.2619C27.0896 17.5021 26.9393 17.381 26.9044 17.2145C26.5054 15.4489 25.541 14.8842 22.9199 14.8842C19.9859 14.8842 19.6447 15.9055 19.6447 16.6717C19.6447 17.6004 20.0469 17.8718 24.0054 18.3958C27.9257 18.9158 29.7871 19.6503 29.7871 22.4055C29.7871 25.1827 27.4691 26.776 23.4277 26.776" fill="#373737"/>
</svg>
