<svg width="39" height="39" viewBox="0 0 39 39" fill="none" xmlns="http://www.w3.org/2000/svg">
<path d="M30.4688 14.1375L29.3719 13.7718C29.3719 13.5281 29.4938 13.2843 29.4938 13.0406C30.3469 9.01869 29.7375 5.72807 27.9094 4.63119C26.0813 3.65619 23.1562 4.63119 20.2313 7.19057C19.9875 7.43432 19.6219 7.67807 19.3781 7.92182C19.1344 7.79994 19.0125 7.55619 18.7688 7.43432C15.8438 4.75307 12.7969 3.65619 10.9688 4.75307C9.14062 5.72807 8.65313 8.89682 9.38438 12.675C9.50625 13.0406 9.50625 13.4062 9.62813 13.7718C9.14062 13.8937 8.775 14.0156 8.40938 14.1375C4.75312 15.3562 2.4375 17.4281 2.4375 19.3781C2.4375 21.45 4.875 23.6437 8.65313 24.8625C8.89688 24.9843 9.2625 25.1062 9.62813 25.1062C9.50625 25.4718 9.38438 25.9593 9.38438 26.325C8.65313 30.1031 9.2625 33.0281 10.9688 34.125C12.7969 35.2218 15.8438 34.125 18.8906 31.4437C19.1344 31.2 19.3781 30.9562 19.6219 30.8343C19.8656 31.0781 20.2313 31.4437 20.5969 31.6875C23.5219 34.2468 26.325 35.2218 28.1531 34.125C29.9813 33.0281 30.5906 29.8593 29.8594 25.9593C29.8594 25.7156 29.7375 25.35 29.6156 24.9843C29.8594 24.8625 30.1031 24.8625 30.225 24.7406C34.125 23.4 36.6844 21.3281 36.6844 19.2562C36.5625 17.4281 34.125 15.4781 30.4688 14.1375ZM21.3281 8.40932C23.8875 6.21557 26.2031 5.36244 27.3 5.97182C28.3969 6.58119 28.8844 9.26244 28.1531 12.7968C28.1531 13.0406 28.0312 13.2843 28.0312 13.5281C26.5688 13.1625 24.9844 12.9187 23.5219 12.7968C22.6688 11.5781 21.6938 10.3593 20.5969 9.14057L21.3281 8.40932ZM12.5531 21.2062C12.9187 21.8156 13.1625 22.425 13.5281 23.0343C13.8938 23.6437 14.2594 24.2531 14.625 24.7406C13.5281 24.6187 12.5531 24.4968 11.4563 24.2531C11.7 23.2781 12.0656 22.3031 12.5531 21.2062ZM12.5531 17.7937C12.0656 16.8187 11.8219 15.8437 11.4563 14.8687C12.4313 14.625 13.5281 14.5031 14.5031 14.3812C14.1375 14.9906 13.7719 15.4781 13.4062 16.0875C13.1625 16.575 12.7969 17.1843 12.5531 17.7937ZM13.2844 19.5C13.7719 18.525 14.2594 17.6718 14.7469 16.6968C15.2344 15.8437 15.8438 14.8687 16.4531 14.0156C17.4281 13.8937 18.525 13.8937 19.6219 13.8937C20.7188 13.8937 21.6938 13.8937 22.7906 14.0156C23.4 14.8687 23.8875 15.7218 24.375 16.6968C24.8625 17.55 25.35 18.525 25.8375 19.5C25.35 20.475 24.8625 21.3281 24.375 22.3031C23.8875 23.1562 23.2781 24.1312 22.7906 24.9843C21.8156 25.1062 20.7188 25.1062 19.6219 25.1062C18.525 25.1062 17.55 25.1062 16.575 24.9843C15.9656 24.1312 15.4781 23.2781 14.8688 22.3031C14.2594 21.3281 13.7719 20.475 13.2844 19.5ZM25.4719 23.0343C25.8375 22.425 26.2031 21.8156 26.4469 21.2062C26.9344 22.1812 27.3 23.1562 27.5438 24.2531C26.4469 24.4968 25.4719 24.6187 24.375 24.7406C24.8625 24.1312 25.2281 23.5218 25.4719 23.0343ZM26.4469 17.7937C26.0813 17.1843 25.8375 16.575 25.4719 15.9656C25.1063 15.3562 24.7406 14.8687 24.4969 14.2593C25.5938 14.3812 26.5688 14.625 27.6656 14.7468C27.3 15.8437 26.9344 16.8187 26.4469 17.7937ZM19.5 10.1156C20.2313 10.8468 20.8406 11.7 21.45 12.5531C20.1094 12.4312 18.7688 12.4312 17.4281 12.5531C18.1594 11.7 18.8906 10.8468 19.5 10.1156ZM11.7 5.97182C12.7969 5.36244 15.3563 6.21557 18.0375 8.65307L18.525 9.14057C17.4281 10.2375 16.4531 11.4562 15.6 12.7968C14.0156 12.9187 12.5531 13.1625 11.0906 13.5281C10.9688 13.1625 10.9688 12.7968 10.8469 12.4312C10.1156 9.14057 10.6031 6.58119 11.7 5.97182ZM9.99375 23.8875C9.75 23.7656 9.38438 23.7656 9.14062 23.6437C7.43438 23.0343 6.09375 22.3031 5.11875 21.5718C4.26562 20.8406 3.9 20.1093 3.9 19.5C3.9 18.2812 5.72813 16.6968 8.89688 15.6C9.2625 15.4781 9.62813 15.3562 10.1156 15.2343C10.4812 16.6968 10.9688 18.1593 11.7 19.5C10.9688 20.9625 10.4812 22.425 9.99375 23.8875ZM17.9156 30.5906C16.575 31.8093 15.2344 32.5406 14.1375 33.0281C13.0406 33.3937 12.3094 33.3937 11.7 33.15C10.6031 32.5406 10.1156 30.1031 10.725 26.9343C10.8469 26.4468 10.9688 26.0812 10.9688 25.5937C12.4313 25.9593 14.0156 26.2031 15.6 26.2031C16.4531 27.4218 17.4281 28.6406 18.525 29.8593C18.2812 30.1031 18.1594 30.3468 17.9156 30.5906ZM19.5 28.8843C18.7688 28.1531 18.1594 27.3 17.4281 26.4468H21.45C20.9625 27.3 20.2313 28.1531 19.5 28.8843ZM28.3969 30.9562C28.1531 32.0531 27.7875 32.7843 27.3 33.0281C26.2031 33.6375 23.8875 32.7843 21.45 30.7125C21.2063 30.4687 20.8406 30.225 20.5969 29.9812C21.5719 28.8843 22.5469 27.6656 23.4 26.325C24.9844 26.2031 26.4469 25.9593 28.0312 25.5937C28.1531 25.8375 28.1531 26.2031 28.275 26.4468C28.6406 28.1531 28.6406 29.7375 28.3969 30.9562ZM29.6156 23.6437C29.3719 23.6437 29.25 23.7656 29.0063 23.7656C28.5188 22.3031 27.9094 20.8406 27.3 19.3781C27.9094 18.0375 28.5188 16.575 29.0063 15.1125C29.3719 15.2343 29.7375 15.3562 29.9813 15.4781C33.15 16.575 35.1 18.1593 35.1 19.3781C35.1 20.8406 33.0281 22.5468 29.6156 23.6437Z" fill="#ffffff"/>
<path d="M19.5 22.5468C20.1094 22.5468 20.7188 22.4249 21.2063 22.0593C21.6938 21.6937 22.0594 21.2062 22.3032 20.7187C22.5469 20.1093 22.5469 19.4999 22.425 18.8906C22.3032 18.2812 22.0594 17.7937 21.5719 17.3062C21.2063 16.8187 20.5969 16.5749 19.9875 16.4531C19.3782 16.3312 18.7688 16.4531 18.1594 16.5749C17.55 16.8187 17.0625 17.1843 16.8188 17.6718C16.4532 18.1593 16.3313 18.7687 16.3313 19.3781C16.3313 19.7437 16.4532 20.2312 16.575 20.5968C16.6969 20.9624 16.9407 21.3281 17.1844 21.5718C17.4282 21.8156 17.7938 22.0593 18.1594 22.1812C18.6469 22.4249 19.1344 22.5468 19.5 22.5468Z" fill="#373737"/>
</svg>
